<svg version="1.2" xmlns="http://www.w3.org/2000/svg" viewBox="0 0 600 600" width="600" height="600">
	<title>Icon (Stroke)-svg</title>
	<style>
		.s0 { fill: #ffffff } 
	</style>
	<path id="Layer" fill-rule="evenodd" class="s0" d="m500 523.1c-53 47.5-123.1 76.4-200 76.4-76.9 0-147-28.9-200-76.4q-0.5-0.4-1-0.9c-60.8-54.9-99-134.3-99-222.7 0-165.6 134.3-300 300-300 165.7 0 300 134.4 300 300 0 88.4-38.2 167.8-99 222.7q-0.5 0.5-1 0.9zm-200-469c-135.6 0-245.5 109.9-245.5 245.4 0 60.6 22 116.1 58.4 158.9 25-30.4 62.8-49.8 105.3-49.8h163.6c42.5 0 80.3 19.4 105.3 49.8 36.4-42.8 58.4-98.3 58.4-158.9 0-135.5-109.9-245.4-245.5-245.4zm147.3 441.8c-15-19.9-38.7-32.7-65.5-32.7h-163.6c-26.8 0-50.5 12.8-65.5 32.7 41 30.8 92 49.1 147.3 49.1 55.3 0 106.3-18.3 147.3-49.1zm-283.7-264.5c0-75.4 61.1-136.4 136.4-136.4 75.3 0 136.4 61 136.4 136.4 0 75.3-61.1 136.3-136.4 136.3-75.3 0-136.4-61-136.4-136.3zm136.4-81.9c-45.2 0-81.8 36.7-81.8 81.9 0 45.1 36.6 81.8 81.8 81.8 45.2 0 81.8-36.7 81.8-81.8 0-45.2-36.6-81.9-81.8-81.9z"/>
</svg>